<svg version="1.1" viewBox="0.0 0.0 960.0 540.0" fill="none" stroke="none" stroke-linecap="square" stroke-miterlimit="10" xmlns:xlink="http://www.w3.org/1999/xlink" xmlns="http://www.w3.org/2000/svg"><clipPath id="ge202e4f7e9_0_14.0"><path d="m0 0l960.0 0l0 540.0l-960.0 0l0 -540.0z" clip-rule="nonzero"/></clipPath><g clip-path="url(#ge202e4f7e9_0_14.0)"><path fill="#212121" d="m0 0l960.0 0l0 540.0l-960.0 0z" fill-rule="evenodd"/><path fill="#0000ff" d="m22.992126 92.815834l0 0c0 -9.503548 7.7041454 -17.207695 17.207691 -17.207695l97.26965 0c4.5637665 0 8.940613 1.8129501 12.167679 5.040016c3.227066 3.2270737 5.040024 7.6039124 5.040024 12.167679l0 68.82871c0 9.50354 -7.7041473 17.207687 -17.207703 17.207687l-97.26965 0l0 0c-9.503546 0 -17.207691 -7.7041473 -17.207691 -17.207687z" fill-rule="evenodd"/><path stroke="#ffffff" stroke-width="3.0" stroke-linejoin="round" stroke-linecap="butt" d="m22.992126 92.815834l0 0c0 -9.503548 7.7041454 -17.207695 17.207691 -17.207695l97.26965 0c4.5637665 0 8.940613 1.8129501 12.167679 5.040016c3.227066 3.2270737 5.040024 7.6039124 5.040024 12.167679l0 68.82871c0 9.50354 -7.7041473 17.207687 -17.207703 17.207687l-97.26965 0l0 0c-9.503546 0 -17.207691 -7.7041473 -17.207691 -17.207687z" fill-rule="evenodd"/><path fill="#ffffff" d="m59.94402 121.27019l0 -17.1875l11.781254 0l0 2.90625l-8.312504 0l0 4.078125l7.171879 0l0 2.90625l-7.171879 0l0 7.296875l-3.46875 0zm17.769535 0l-3.296875 0l0 -12.453125l3.0625 0l0 1.78125q0.78125 -1.265625 1.40625 -1.65625q0.640625 -0.40625 1.4375 -0.40625q1.125 0 2.15625 0.625l-1.015625 2.875q-0.828125 -0.546875 -1.546875 -0.546875q-0.6875 0 -1.171875 0.390625q-0.484375 0.375 -0.765625 1.375q-0.265625 1.0 -0.265625 4.171875l0 3.84375zm5.4335938 -6.40625q0 -1.640625 0.796875 -3.171875q0.8125 -1.53125 2.296875 -2.34375q1.484375 -0.8125 3.3125 -0.8125q2.828125 0 4.625 1.84375q1.8125 1.828125 1.8125 4.625q0 2.828125 -1.828125 4.6875q-1.828125 1.859375 -4.59375 1.859375q-1.703125 0 -3.265625 -0.765625q-1.546875 -0.78125 -2.359375 -2.265625q-0.796875 -1.5 -0.796875 -3.65625zm3.375 0.1875q0 1.84375 0.875 2.828125q0.875 0.984375 2.171875 0.984375q1.28125 0 2.15625 -0.984375q0.875 -0.984375 0.875 -2.859375q0 -1.828125 -0.875 -2.8125q-0.875 -0.984375 -2.15625 -0.984375q-1.296875 0 -2.171875 0.984375q-0.875 0.984375 -0.875 2.84375zm23.363281 6.21875l-3.296875 0l0 -6.359375q0 -2.015625 -0.21875 -2.59375q-0.203125 -0.59375 -0.6875 -0.921875q-0.46875 -0.328125 -1.125 -0.328125q-0.859375 0 -1.546875 0.46875q-0.671875 0.46875 -0.921875 1.25q-0.25 0.765625 -0.25 2.84375l0 5.640625l-3.296875 0l0 -12.453125l3.0625 0l0 1.828125q1.625 -2.109375 4.09375 -2.109375q1.09375 0 1.984375 0.40625q0.90625 0.390625 1.375 1.0q0.46875 0.609375 0.640625 1.390625q0.1875 0.765625 0.1875 2.203125l0 7.734375zm9.050781 -12.453125l0 2.625l-2.25 0l0 5.015625q0 1.53125 0.0625 1.78125q0.0625 0.25 0.28125 0.421875q0.234375 0.15625 0.5625 0.15625q0.453125 0 1.328125 -0.3125l0.28125 2.546875q-1.15625 0.5 -2.609375 0.5q-0.890625 0 -1.609375 -0.296875q-0.703125 -0.296875 -1.046875 -0.765625q-0.328125 -0.484375 -0.453125 -1.296875q-0.109375 -0.578125 -0.109375 -2.3125l0 -5.4375l-1.515625 0l0 -2.625l1.515625 0l0 -2.46875l3.3125 -1.921875l0 4.390625l2.25 0z" fill-rule="nonzero"/><path fill="#ffffff" d="m53.348316 155.31706l-2.265625 0q-1.796875 -2.703125 -2.734375 -5.625q-0.9375 -2.921875 -0.9375 -5.640625q0 -3.390625 1.171875 -6.421875q1.0 -2.625 2.546875 -4.828125l2.25 0q-1.609375 3.546875 -2.21875 6.046875q-0.59375 2.484375 -0.59375 5.265625q0 1.921875 0.359375 3.9375q0.359375 2.015625 0.984375 3.84375q0.40625 1.1875 1.4375 3.421875zm2.6484375 -5.046875l0 -17.046875l3.46875 0l0 14.15625l8.625004 0l0 2.890625l-12.093754 0zm22.738285 0l0 -1.859375q-0.6875 0.984375 -1.796875 1.5625q-1.109375 0.578125 -2.328125 0.578125q-1.265625 0 -2.265625 -0.546875q-0.984375 -0.5625 -1.4375 -1.546875q-0.4375 -1.0 -0.4375 -2.765625l0 -7.875l3.296875 0l0 5.71875q0 2.625 0.171875 3.21875q0.1875 0.59375 0.65625 0.9375q0.484375 0.34375 1.234375 0.34375q0.84375 0 1.5 -0.453125q0.671875 -0.46875 0.921875 -1.15625q0.25 -0.6875 0.25 -3.359375l0 -5.25l3.28125 0l0 12.453125l-3.046875 0zm17.316406 -8.765625l-3.25 0.578125q-0.15625 -0.96875 -0.75 -1.453125q-0.578125 -0.5 -1.5 -0.5q-1.234375 0 -1.96875 0.859375q-0.71875 0.84375 -0.71875 2.828125q0 2.21875 0.734375 3.140625q0.75 0.90625 2.0 0.90625q0.9375 0 1.53125 -0.53125q0.609375 -0.53125 0.84375 -1.828125l3.234375 0.546875q-0.5 2.21875 -1.9375 3.359375q-1.421875 1.140625 -3.828125 1.140625q-2.71875 0 -4.34375 -1.71875q-1.625 -1.734375 -1.625 -4.78125q0 -3.078125 1.625 -4.796875q1.625 -1.71875 4.40625 -1.71875q2.28125 0 3.609375 0.984375q1.34375 0.984375 1.9375 2.984375zm4.9570312 0.109375l-2.984375 -0.53125q0.5 -1.8125 1.71875 -2.671875q1.234375 -0.875 3.671875 -0.875q2.203125 0 3.28125 0.53125q1.078125 0.515625 1.515625 1.328125q0.4375 0.796875 0.4375 2.9375l-0.03125 3.84375q0 1.640625 0.15625 2.421875q0.15625 0.78125 0.59375 1.671875l-3.265625 0q-0.125 -0.328125 -0.3125 -0.96875q-0.078125 -0.296875 -0.125 -0.390625q-0.84375 0.8125 -1.8125 1.234375q-0.953125 0.40625 -2.03125 0.40625q-1.921875 0 -3.03125 -1.046875q-1.109375 -1.046875 -1.109375 -2.640625q0 -1.046875 0.5 -1.875q0.5 -0.828125 1.40625 -1.265625q0.921875 -0.4375 2.625 -0.765625q2.3125 -0.4375 3.203125 -0.8125l0 -0.328125q0 -0.953125 -0.46875 -1.34375q-0.46875 -0.40625 -1.765625 -0.40625q-0.890625 0 -1.390625 0.34375q-0.484375 0.34375 -0.78125 1.203125zm4.40625 2.671875q-0.640625 0.21875 -2.015625 0.515625q-1.359375 0.28125 -1.78125 0.5625q-0.640625 0.46875 -0.640625 1.171875q0 0.6875 0.515625 1.1875q0.515625 0.5 1.3125 0.5q0.890625 0 1.6875 -0.578125q0.609375 -0.453125 0.796875 -1.09375q0.125 -0.421875 0.125 -1.609375l0 -0.65625zm5.3164062 2.4375l3.3125 -0.515625q0.203125 0.96875 0.84375 1.46875q0.65625 0.5 1.8125 0.5q1.28125 0 1.921875 -0.46875q0.4375 -0.328125 0.4375 -0.890625q0 -0.375 -0.234375 -0.609375q-0.25 -0.234375 -1.109375 -0.4375q-3.984375 -0.875 -5.046875 -1.609375q-1.484375 -1.0 -1.484375 -2.796875q0 -1.625 1.28125 -2.71875q1.28125 -1.109375 3.96875 -1.109375q2.546875 0 3.78125 0.84375q1.25 0.828125 1.71875 2.453125l-3.109375 0.578125q-0.1875 -0.734375 -0.75 -1.109375q-0.5625 -0.390625 -1.59375 -0.390625q-1.296875 0 -1.859375 0.359375q-0.375 0.265625 -0.375 0.671875q0 0.34375 0.328125 0.59375q0.453125 0.328125 3.078125 0.9375q2.625 0.59375 3.671875 1.453125q1.03125 0.875 1.03125 2.453125q0 1.703125 -1.4375 2.9375q-1.421875 1.234375 -4.21875 1.234375q-2.546875 0 -4.03125 -1.03125q-1.484375 -1.03125 -1.9375 -2.796875zm13.597656 8.59375q0.96875 -2.078125 1.359375 -3.203125q0.40625 -1.109375 0.75 -2.5625q0.34375 -1.453125 0.5 -2.75q0.171875 -1.3125 0.171875 -2.6875q0 -2.78125 -0.609375 -5.265625q-0.59375 -2.5 -2.203125 -6.046875l2.25 0q1.7656174 2.515625 2.7343674 5.34375q0.984375 2.8125 0.984375 5.71875q0 2.453125 -0.765625 5.25q-0.890625 3.15625 -2.9062424 6.203125l-2.265625 0z" fill-rule="nonzero"/><path fill="#ff9900" d="m403.37698 81.38193l131.68503 0l0 91.71654l-131.68503 0z" fill-rule="evenodd"/><path stroke="#ffffff" stroke-width="3.0" stroke-linejoin="round" stroke-linecap="butt" d="m403.37698 81.38193l131.68503 0l0 91.71654l-131.68503 0z" fill-rule="evenodd"/><path fill="#ffffff" d="m442.2976 104.0927l6.859375 0q2.046875 0 3.046875 0.171875q1.0 0.171875 1.78125 0.71875q0.796875 0.53125 1.328125 1.4375q0.53125 0.890625 0.53125 2.0q0 1.203125 -0.65625 2.21875q-0.65625 1.0 -1.765625 1.515625q1.578125 0.453125 2.421875 1.5625q0.84375 1.09375 0.84375 2.578125q0 1.171875 -0.546875 2.28125q-0.546875 1.109375 -1.5 1.78125q-0.9375 0.65625 -2.3125 0.796875q-0.875 0.09375 -4.1875 0.125l-5.84375 0l0 -17.1875zm3.46875 2.859375l0 3.984375l2.265625 0q2.03125 0 2.515625 -0.0625q0.890625 -0.109375 1.40625 -0.609375q0.515625 -0.515625 0.515625 -1.34375q0 -0.796875 -0.453125 -1.296875q-0.4375 -0.5 -1.296875 -0.609375q-0.515625 -0.0625 -2.96875 -0.0625l-1.984375 0zm0 6.84375l0 4.59375l3.203125 0q1.875 0 2.375 -0.109375q0.78125 -0.140625 1.265625 -0.6875q0.484375 -0.546875 0.484375 -1.453125q0 -0.78125 -0.375 -1.3125q-0.375 -0.546875 -1.09375 -0.78125q-0.703125 -0.25 -3.0625 -0.25l-2.796875 0zm16.285156 -1.171875l-2.984375 -0.53125q0.5 -1.8125 1.71875 -2.671875q1.234375 -0.875 3.671875 -0.875q2.203125 0 3.28125 0.53125q1.078125 0.515625 1.515625 1.328125q0.4375 0.796875 0.4375 2.9375l-0.03125 3.84375q0 1.640625 0.15625 2.421875q0.15625 0.78125 0.59375 1.671875l-3.265625 0q-0.125 -0.328125 -0.3125 -0.96875q-0.078125 -0.296875 -0.125 -0.390625q-0.84375 0.8125 -1.8125 1.234375q-0.953125 0.40625 -2.03125 0.40625q-1.921875 0 -3.03125 -1.046875q-1.109375 -1.046875 -1.109375 -2.640625q0 -1.046875 0.5 -1.875q0.5 -0.828125 1.40625 -1.265625q0.921875 -0.4375 2.625 -0.765625q2.3125 -0.4375 3.203125 -0.8125l0 -0.328125q0 -0.953125 -0.46875 -1.34375q-0.46875 -0.40625 -1.765625 -0.40625q-0.890625 0 -1.390625 0.34375q-0.484375 0.34375 -0.78125 1.203125zm4.40625 2.671875q-0.640625 0.21875 -2.015625 0.515625q-1.359375 0.28125 -1.78125 0.5625q-0.640625 0.46875 -0.640625 1.171875q0 0.6875 0.515625 1.1875q0.515625 0.5 1.3125 0.5q0.890625 0 1.6875 -0.578125q0.609375 -0.453125 0.796875 -1.09375q0.125 -0.421875 0.125 -1.609375l0 -0.65625zm17.332031 -2.78125l-3.25 0.578125q-0.15625 -0.96875 -0.75 -1.453125q-0.578125 -0.5 -1.5 -0.5q-1.234375 0 -1.96875 0.859375q-0.71875 0.84375 -0.71875 2.828125q0 2.21875 0.734375 3.140625q0.75 0.90625 2.0 0.90625q0.9375 0 1.53125 -0.53125q0.609375 -0.53125 0.84375 -1.828125l3.234375 0.546875q-0.5 2.21875 -1.9375 3.359375q-1.421875 1.140625 -3.828125 1.140625q-2.71875 0 -4.34375 -1.71875q-1.625 -1.734375 -1.625 -4.78125q0 -3.078125 1.625 -4.796875q1.625 -1.71875 4.40625 -1.71875q2.28125 0 3.609375 0.984375q1.34375 0.984375 1.9375 2.984375zm2.3789062 8.765625l0 -17.1875l3.296875 0l0 9.125l3.84375 -4.390625l4.0625 0l-4.25 4.546875l4.546875 7.90625l-3.546875 0l-3.125 -5.59375l-1.53125 1.609375l0 3.984375l-3.296875 0z" fill-rule="nonzero"/><path fill="#ffffff" d="m426.39722 155.32707l-2.265625 0q-1.796875 -2.703125 -2.734375 -5.625q-0.9375 -2.921875 -0.9375 -5.640625q0 -3.390625 1.171875 -6.421875q1.0 -2.625 2.546875 -4.828125l2.25 0q-1.609375 3.546875 -2.21875 6.046875q-0.59375 2.484375 -0.59375 5.265625q0 1.921875 0.359375 3.9375q0.359375 2.015625 0.984375 3.84375q0.40625 1.1875 1.4375 3.421875zm2.5078125 -5.046875l0 -17.1875l5.1875 0l3.125 11.71875l3.078125 -11.71875l5.203125 0l0 17.1875l-3.21875 0l0 -13.53125l-3.421875 13.53125l-3.328125 0l-3.40625 -13.53125l0 13.53125l-3.21875 0zm22.476562 -8.65625l-2.984375 -0.53125q0.5 -1.8125 1.71875 -2.671875q1.234375 -0.875 3.671875 -0.875q2.203125 0 3.28125 0.53125q1.078125 0.515625 1.515625 1.328125q0.4375 0.796875 0.4375 2.9375l-0.03125 3.84375q0 1.640625 0.15625 2.421875q0.15625 0.78125 0.59375 1.671875l-3.265625 0q-0.125 -0.328125 -0.3125 -0.96875q-0.078125 -0.296875 -0.125 -0.390625q-0.84375 0.8125 -1.8125 1.234375q-0.953125 0.40625 -2.03125 0.40625q-1.921875 0 -3.03125 -1.046875q-1.109375 -1.046875 -1.109375 -2.640625q0 -1.046875 0.5 -1.875q0.5 -0.828125 1.40625 -1.265625q0.921875 -0.4375 2.625 -0.765625q2.3125 -0.4375 3.203125 -0.8125l0 -0.328125q0 -0.953125 -0.46875 -1.34375q-0.46875 -0.40625 -1.765625 -0.40625q-0.890625 0 -1.390625 0.34375q-0.484375 0.34375 -0.78125 1.203125zm4.40625 2.671875q-0.640625 0.21875 -2.015625 0.515625q-1.359375 0.28125 -1.78125 0.5625q-0.640625 0.46875 -0.640625 1.171875q0 0.6875 0.515625 1.1875q0.515625 0.5 1.3125 0.5q0.890625 0 1.6875 -0.578125q0.609375 -0.453125 0.796875 -1.09375q0.125 -0.421875 0.125 -1.609375l0 -0.65625zm9.628906 5.984375l-3.296875 0l0 -12.453125l3.0625 0l0 1.78125q0.78125 -1.265625 1.40625 -1.65625q0.640625 -0.40625 1.4375 -0.40625q1.125 0 2.15625 0.625l-1.015625 2.875q-0.828125 -0.546875 -1.546875 -0.546875q-0.6875 0 -1.171875 0.390625q-0.484375 0.375 -0.765625 1.375q-0.265625 1.0 -0.265625 4.171875l0 3.84375zm17.042969 -8.765625l-3.25 0.578125q-0.15625 -0.96875 -0.75 -1.453125q-0.578125 -0.5 -1.5 -0.5q-1.234375 0 -1.96875 0.859375q-0.71875 0.84375 -0.71875 2.828125q0 2.21875 0.734375 3.140625q0.75 0.90625 2.0 0.90625q0.9375 0 1.53125 -0.53125q0.609375 -0.53125 0.84375 -1.828125l3.234375 0.546875q-0.5 2.21875 -1.9375 3.359375q-1.421875 1.140625 -3.828125 1.140625q-2.71875 0 -4.34375 -1.71875q-1.625 -1.734375 -1.625 -4.78125q0 -3.078125 1.625 -4.796875q1.625 -1.71875 4.40625 -1.71875q2.28125 0 3.609375 0.984375q1.34375 0.984375 1.9375 2.984375zm1.7382812 2.359375q0 -1.640625 0.796875 -3.171875q0.8125 -1.53125 2.296875 -2.34375q1.484375 -0.8125 3.3125 -0.8125q2.828125 0 4.625 1.84375q1.8125 1.828125 1.8125 4.625q0 2.828125 -1.828125 4.6875q-1.828125 1.859375 -4.59375 1.859375q-1.703125 0 -3.265625 -0.765625q-1.546875 -0.78125 -2.359375 -2.265625q-0.796875 -1.5 -0.796875 -3.65625zm3.375 0.1875q0 1.84375 0.875 2.828125q0.875 0.984375 2.171875 0.984375q1.28125 0 2.15625 -0.984375q0.875 -0.984375 0.875 -2.859375q0 -1.828125 -0.875 -2.8125q-0.875 -0.984375 -2.15625 -0.984375q-1.296875 0 -2.171875 0.984375q-0.875 0.984375 -0.875 2.84375zm10.878906 2.671875l3.3125 -0.515625q0.203125 0.96875 0.84375 1.46875q0.65625 0.5 1.8125 0.5q1.28125 0 1.921875 -0.46875q0.4375 -0.328125 0.4375 -0.890625q0 -0.375 -0.234375 -0.609375q-0.25 -0.234375 -1.109375 -0.4375q-3.984375 -0.875 -5.046875 -1.609375q-1.484375 -1.0 -1.484375 -2.796875q0 -1.625 1.28125 -2.71875q1.28125 -1.109375 3.96875 -1.109375q2.546875 0 3.78125 0.84375q1.25 0.828125 1.71875 2.453125l-3.109375 0.578125q-0.1875 -0.734375 -0.75 -1.109375q-0.5625 -0.390625 -1.59375 -0.390625q-1.296875 0 -1.859375 0.359375q-0.375 0.265625 -0.375 0.671875q0 0.34375 0.328125 0.59375q0.453125 0.328125 3.078125 0.9375q2.625 0.59375 3.671875 1.453125q1.03125 0.875 1.03125 2.453125q0 1.703125 -1.4375 2.9375q-1.421875 1.234375 -4.21875 1.234375q-2.546875 0 -4.03125 -1.03125q-1.484375 -1.03125 -1.9375 -2.796875zm13.597656 8.59375q0.96875 -2.078125 1.359375 -3.203125q0.40625 -1.109375 0.75 -2.5625q0.34375 -1.453125 0.5 -2.75q0.171875 -1.3125 0.171875 -2.6875q0 -2.78125 -0.609375 -5.265625q-0.59375 -2.5 -2.203125 -6.046875l2.25 0q1.765625 2.515625 2.734375 5.34375q0.984375 2.8125 0.984375 5.71875q0 2.453125 -0.765625 5.25q-0.890625 3.15625 -2.90625 6.203125l-2.265625 0z" fill-rule="nonzero"/><path fill="#00ff00" d="m40.20006 384.61154l123.94682 0l17.207687 17.207703l0 86.03641l0 0l-158.3622 0l0 0l0 -86.03641z" fill-rule="evenodd"/><path stroke="#ffffff" stroke-width="3.0" stroke-linejoin="round" stroke-linecap="butt" d="m40.20006 384.61154l123.94682 0l17.207687 17.207703l0 86.03641l0 0l-158.3622 0l0 0l0 -86.03641z" fill-rule="evenodd"/><path fill="#ffffff" d="m71.907845 434.57553l0 -17.1875l12.734375 0l0 2.90625l-9.265625 0l0 3.8125l8.625 0l0 2.890625l-8.625 0l0 4.6875l9.59375 0l0 2.890625l-13.0625 0zm15.7421875 -12.453125l3.03125 0l0 1.703125q1.625 -1.984375 3.875 -1.984375q1.203125 0 2.078125 0.5q0.875 0.484375 1.4375 1.484375q0.828125 -1.0 1.765625 -1.484375q0.953125 -0.5 2.03125 -0.5q1.375 0 2.3125 0.5625q0.953125 0.5625 1.421875 1.640625q0.34375 0.796875 0.34375 2.578125l0 7.953125l-3.296875 0l0 -7.109375q0 -1.859375 -0.328125 -2.390625q-0.46875 -0.703125 -1.40625 -0.703125q-0.703125 0 -1.3125 0.421875q-0.609375 0.421875 -0.875 1.234375q-0.265625 0.8125 -0.265625 2.5625l0 5.984375l-3.296875 0l0 -6.828125q0 -1.8125 -0.171875 -2.328125q-0.171875 -0.53125 -0.546875 -0.78125q-0.375 -0.265625 -1.0 -0.265625q-0.765625 0 -1.375 0.40625q-0.609375 0.40625 -0.875 1.1875q-0.265625 0.765625 -0.265625 2.5625l0 6.046875l-3.28125 0l0 -12.453125zm24.042969 3.796875l-2.984375 -0.53125q0.5 -1.8125 1.71875 -2.671875q1.234375 -0.875 3.671875 -0.875q2.203125 0 3.28125 0.53125q1.078125 0.515625 1.515625 1.328125q0.4375 0.796875 0.4375 2.9375l-0.03125 3.84375q0 1.640625 0.15625 2.421875q0.15625 0.78125 0.59375 1.671875l-3.265625 0q-0.125 -0.328125 -0.3125 -0.96875q-0.078125 -0.296875 -0.125 -0.390625q-0.84375 0.8125 -1.8125 1.234375q-0.953125 0.40625 -2.03125 0.40625q-1.921875 0 -3.03125 -1.046875q-1.109375 -1.046875 -1.109375 -2.640625q0 -1.046875 0.5 -1.875q0.5 -0.828125 1.40625 -1.265625q0.921875 -0.4375 2.625 -0.765625q2.3125 -0.4375 3.203125 -0.8125l0 -0.328125q0 -0.953125 -0.46875 -1.34375q-0.46875 -0.40625 -1.765625 -0.40625q-0.890625 0 -1.390625 0.34375q-0.484375 0.34375 -0.78125 1.203125zm4.40625 2.671875q-0.640625 0.21875 -2.015625 0.515625q-1.359375 0.28125 -1.78125 0.5625q-0.640625 0.46875 -0.640625 1.171875q0 0.6875 0.515625 1.1875q0.515625 0.5 1.3125 0.5q0.890625 0 1.6875 -0.578125q0.609375 -0.453125 0.796875 -1.09375q0.125 -0.421875 0.125 -1.609375l0 -0.65625zm6.4726562 -8.15625l0 -3.046875l3.296875 0l0 3.046875l-3.296875 0zm0 14.140625l0 -12.453125l3.296875 0l0 12.453125l-3.296875 0zm6.667961 0l0 -17.1875l3.296875 0l0 17.1875l-3.296875 0z" fill-rule="nonzero"/><path fill="#ffffff" d="m60.007454 468.6224l-2.265625 0q-1.796875 -2.703125 -2.734375 -5.625q-0.9375 -2.921875 -0.9375 -5.640625q0 -3.390625 1.171875 -6.421875q1.0 -2.625 2.546875 -4.828125l2.25 0q-1.609375 3.546875 -2.21875 6.046875q-0.59375 2.484375 -0.59375 5.265625q0 1.921875 0.359375 3.9375q0.359375 2.015625 0.984375 3.84375q0.40625 1.1875 1.4375 3.421875zm2.5078125 -5.046875l0 -17.1875l5.1875 0l3.125 11.71875l3.078125 -11.71875l5.203125 0l0 17.1875l-3.21875 0l0 -13.53125l-3.421875 13.53125l-3.328125 0l-3.40625 -13.53125l0 13.53125l-3.21875 0zm22.476562 -8.65625l-2.984375 -0.53125q0.5 -1.8125 1.71875 -2.671875q1.234375 -0.875 3.671875 -0.875q2.203125 0 3.28125 0.53125q1.078125 0.515625 1.515625 1.328125q0.4375 0.796875 0.4375 2.9375l-0.03125 3.84375q0 1.640625 0.15625 2.421875q0.15625 0.78125 0.59375 1.671875l-3.265625 0q-0.125 -0.328125 -0.3125 -0.96875q-0.078125 -0.296875 -0.125 -0.390625q-0.84375 0.8125 -1.8125 1.234375q-0.953125 0.40625 -2.03125 0.40625q-1.921875 0 -3.03125 -1.046875q-1.109375 -1.046875 -1.109375 -2.640625q0 -1.046875 0.5 -1.875q0.5 -0.828125 1.40625 -1.265625q0.921875 -0.4375 2.625 -0.765625q2.3125 -0.4375 3.203125 -0.8125l0 -0.328125q0 -0.953125 -0.46875 -1.34375q-0.46875 -0.40625 -1.765625 -0.40625q-0.890625 0 -1.390625 0.34375q-0.484375 0.34375 -0.78125 1.203125zm4.40625 2.671875q-0.640625 0.21875 -2.015625 0.515625q-1.359375 0.28125 -1.78125 0.5625q-0.640625 0.46875 -0.640625 1.171875q0 0.6875 0.515625 1.1875q0.515625 0.5 1.3125 0.5q0.890625 0 1.6875 -0.578125q0.609375 -0.453125 0.796875 -1.09375q0.125 -0.421875 0.125 -1.609375l0 -0.65625zm4.9257812 -6.46875l3.5 0l2.96875 8.84375l2.90625 -8.84375l3.421875 0l-4.40625 11.984375l-0.78125 2.171875q-0.4375 1.09375 -0.828125 1.65625q-0.390625 0.578125 -0.90625 0.9375q-0.5 0.359375 -1.25 0.546875q-0.734375 0.203125 -1.671875 0.203125q-0.953125 0 -1.875 -0.1875l-0.28125 -2.578125q0.765625 0.140625 1.390625 0.140625q1.140625 0 1.6875 -0.671875q0.5625 -0.671875 0.859375 -1.71875l-4.734375 -12.484375zm17.363281 3.796875l-2.984375 -0.53125q0.5 -1.8125 1.71875 -2.671875q1.234375 -0.875 3.671875 -0.875q2.203125 0 3.28125 0.53125q1.078125 0.515625 1.515625 1.328125q0.4375 0.796875 0.4375 2.9375l-0.03125 3.84375q0 1.640625 0.15625 2.421875q0.15625 0.78125 0.59375 1.671875l-3.265625 0q-0.125 -0.328125 -0.3125 -0.96875q-0.078125 -0.296875 -0.125 -0.390625q-0.84375 0.8125 -1.8125 1.234375q-0.953125 0.40625 -2.03125 0.40625q-1.921875 0 -3.03125 -1.046875q-1.109375 -1.046875 -1.109375 -2.640625q0 -1.046875 0.5 -1.875q0.5 -0.828125 1.40625 -1.265625q0.921875 -0.4375 2.625 -0.765625q2.3125 -0.4375 3.203125 -0.8125l0 -0.328125q0 -0.953125 -0.46875 -1.34375q-0.46875 -0.40625 -1.765625 -0.40625q-0.890625 0 -1.390625 0.34375q-0.484375 0.34375 -0.78125 1.203125zm4.40625 2.671875q-0.640625 0.21875 -2.015625 0.515625q-1.359375 0.28125 -1.78125 0.5625q-0.640625 0.46875 -0.640625 1.171875q0 0.6875 0.515625 1.1875q0.515625 0.5 1.3125 0.5q0.890625 0 1.6875 -0.578125q0.609375 -0.453125 0.796875 -1.09375q0.125 -0.421875 0.125 -1.609375l0 -0.65625zm9.628906 5.984375l-3.296875 0l0 -12.453125l3.0625 0l0 1.78125q0.78125 -1.265625 1.40625 -1.65625q0.640625 -0.40625 1.4374924 -0.40625q1.125 0 2.15625 0.625l-1.015625 2.875q-0.828125 -0.546875 -1.5468674 -0.546875q-0.6875 0 -1.171875 0.390625q-0.484375 0.375 -0.765625 1.375q-0.265625 1.0 -0.265625 4.171875l0 3.84375zm8.652336 -8.65625l-2.984375 -0.53125q0.5 -1.8125 1.71875 -2.671875q1.234375 -0.875 3.671875 -0.875q2.203125 0 3.28125 0.53125q1.078125 0.515625 1.515625 1.328125q0.4375 0.796875 0.4375 2.9375l-0.03125 3.84375q0 1.640625 0.15625 2.421875q0.15625 0.78125 0.59375 1.671875l-3.265625 0q-0.125 -0.328125 -0.3125 -0.96875q-0.078125 -0.296875 -0.125 -0.390625q-0.84375 0.8125 -1.8125 1.234375q-0.953125 0.40625 -2.03125 0.40625q-1.921875 0 -3.03125 -1.046875q-1.109375 -1.046875 -1.109375 -2.640625q0 -1.046875 0.5 -1.875q0.5 -0.828125 1.40625 -1.265625q0.921875 -0.4375 2.625 -0.765625q2.3125 -0.4375 3.203125 -0.8125l0 -0.328125q0 -0.953125 -0.46875 -1.34375q-0.46875 -0.40625 -1.765625 -0.40625q-0.890625 0 -1.390625 0.34375q-0.484375 0.34375 -0.78125 1.203125zm4.40625 2.671875q-0.640625 0.21875 -2.015625 0.515625q-1.359375 0.28125 -1.78125 0.5625q-0.640625 0.46875 -0.640625 1.171875q0 0.6875 0.515625 1.1875q0.515625 0.5 1.3125 0.5q0.890625 0 1.6875 -0.578125q0.609375 -0.453125 0.796875 -1.09375q0.125 -0.421875 0.125 -1.609375l0 -0.65625zm5.5664062 11.03125q0.96875 -2.078125 1.359375 -3.203125q0.40625 -1.109375 0.75 -2.5625q0.34375 -1.453125 0.5 -2.75q0.171875 -1.3125 0.171875 -2.6875q0 -2.78125 -0.609375 -5.265625q-0.59375 -2.5 -2.203125 -6.046875l2.25 0q1.765625 2.515625 2.734375 5.34375q0.984375 2.8125 0.984375 5.71875q0 2.453125 -0.765625 5.25q-0.890625 3.15625 -2.90625 6.203125l-2.265625 0z" fill-rule="nonzero"/><path fill="#00ff00" d="m368.003 253.04462l202.435 0l17.207703 17.207703l0 86.03641l0 0l-236.8504 0l0 0l0 -86.03641z" fill-rule="evenodd"/><path stroke="#ffffff" stroke-width="3.0" stroke-linejoin="round" stroke-linecap="butt" d="m368.003 253.04462l202.435 0l17.207703 17.207703l0 86.03641l0 0l-236.8504 0l0 0l0 -86.03641z" fill-rule="evenodd"/><path fill="#ffffff" d="m419.76932 303.00858l-3.765625 0l-1.5 -3.90625l-6.875 0l-1.40625 3.90625l-3.6875 0l6.6875 -17.1875l3.671875 0l6.875 17.1875zm-6.375 -6.796875l-2.375 -6.375l-2.3125 6.375l4.6875 0zm13.910156 -5.65625l0 2.625l-2.25 0l0 5.015625q0 1.53125 0.0625 1.78125q0.0625 0.25 0.28125 0.421875q0.234375 0.15625 0.5625 0.15625q0.453125 0 1.328125 -0.3125l0.28125 2.546875q-1.15625 0.5 -2.609375 0.5q-0.890625 0 -1.609375 -0.296875q-0.703125 -0.296875 -1.046875 -0.765625q-0.328125 -0.484375 -0.453125 -1.296875q-0.109375 -0.578125 -0.109375 -2.3125l0 -5.4375l-1.515625 0l0 -2.625l1.515625 0l0 -2.46875l3.3125 -1.921875l0 4.390625l2.25 0zm10.4765625 12.453125l0 -1.859375q-0.6875 0.984375 -1.796875 1.5625q-1.109375 0.578125 -2.328125 0.578125q-1.265625 0 -2.265625 -0.546875q-0.984375 -0.5625 -1.4375 -1.546875q-0.4375 -1.0 -0.4375 -2.765625l0 -7.875l3.296875 0l0 5.71875q0 2.625 0.171875 3.21875q0.1875 0.59375 0.65625 0.9375q0.484375 0.34375 1.234375 0.34375q0.84375 0 1.5 -0.453125q0.671875 -0.46875 0.921875 -1.15625q0.25 -0.6875 0.25 -3.359375l0 -5.25l3.28125 0l0 12.453125l-3.046875 0zm8.925781 -8.65625l-2.984375 -0.53125q0.5 -1.8125 1.71875 -2.671875q1.234375 -0.875 3.671875 -0.875q2.203125 0 3.28125 0.53125q1.078125 0.515625 1.515625 1.328125q0.4375 0.796875 0.4375 2.9375l-0.03125 3.84375q0 1.640625 0.15625 2.421875q0.15625 0.78125 0.59375 1.671875l-3.265625 0q-0.125 -0.328125 -0.3125 -0.96875q-0.078125 -0.296875 -0.125 -0.390625q-0.84375 0.8125 -1.8125 1.234375q-0.953125 0.40625 -2.03125 0.40625q-1.921875 0 -3.03125 -1.046875q-1.109375 -1.046875 -1.109375 -2.640625q0 -1.046875 0.5 -1.875q0.5 -0.828125 1.40625 -1.265625q0.921875 -0.4375 2.625 -0.765625q2.3125 -0.4375 3.203125 -0.8125l0 -0.328125q0 -0.953125 -0.46875 -1.34375q-0.46875 -0.40625 -1.765625 -0.40625q-0.890625 0 -1.390625 0.34375q-0.484375 0.34375 -0.78125 1.203125zm4.40625 2.671875q-0.640625 0.21875 -2.015625 0.515625q-1.359375 0.28125 -1.78125 0.5625q-0.640625 0.46875 -0.640625 1.171875q0 0.6875 0.515625 1.1875q0.515625 0.5 1.3125 0.5q0.890625 0 1.6875 -0.578125q0.609375 -0.453125 0.796875 -1.09375q0.125 -0.421875 0.125 -1.609375l0 -0.65625zm6.4726562 5.984375l0 -17.1875l3.296875 0l0 17.1875l-3.296875 0zm6.6679688 -14.140625l0 -3.046875l3.296875 0l0 3.046875l-3.296875 0zm0 14.140625l0 -12.453125l3.296875 0l0 12.453125l-3.296875 0zm5.3554688 0l0 -2.5625l4.65625 -5.359375q1.15625 -1.3125 1.703125 -1.859375q-0.578125 0.03125 -1.515625 0.046875l-4.390625 0.015625l0 -2.734375l10.28125 0l0 2.34375l-4.75 5.484375l-1.671875 1.8125q1.359375 -0.078125 1.6875 -0.078125l5.109375 0l0 2.890625l-11.109375 0zm15.78125 -8.65625l-2.984375 -0.53125q0.5 -1.8125 1.71875 -2.671875q1.234375 -0.875 3.671875 -0.875q2.203125 0 3.28125 0.53125q1.078125 0.515625 1.515625 1.328125q0.4375 0.796875 0.4375 2.9375l-0.03125 3.84375q0 1.640625 0.15625 2.421875q0.15625 0.78125 0.59375 1.671875l-3.265625 0q-0.125 -0.328125 -0.3125 -0.96875q-0.078125 -0.296875 -0.125 -0.390625q-0.84375 0.8125 -1.8125 1.234375q-0.953125 0.40625 -2.03125 0.40625q-1.921875 0 -3.03125 -1.046875q-1.109375 -1.046875 -1.109375 -2.640625q0 -1.046875 0.5 -1.875q0.5 -0.828125 1.40625 -1.265625q0.921875 -0.4375 2.625 -0.765625q2.3125 -0.4375 3.203125 -0.8125l0 -0.328125q0 -0.953125 -0.46875 -1.34375q-0.46875 -0.40625 -1.765625 -0.40625q-0.890625 0 -1.390625 0.34375q-0.484375 0.34375 -0.78125 1.203125zm4.40625 2.671875q-0.640625 0.21875 -2.015625 0.515625q-1.359375 0.28125 -1.78125 0.5625q-0.640625 0.46875 -0.640625 1.171875q0 0.6875 0.515625 1.1875q0.515625 0.5 1.3125 0.5q0.890625 0 1.6875 -0.578125q0.609375 -0.453125 0.796875 -1.09375q0.125 -0.421875 0.125 -1.609375l0 -0.65625zm17.332031 -2.78125l-3.25 0.578125q-0.15625 -0.96875 -0.75 -1.453125q-0.578125 -0.5 -1.5 -0.5q-1.234375 0 -1.96875 0.859375q-0.71875 0.84375 -0.71875 2.828125q0 2.21875 0.734375 3.140625q0.75 0.90625 2.0 0.90625q0.9375 0 1.53125 -0.53125q0.609375 -0.53125 0.84375 -1.828125l3.234375 0.546875q-0.5 2.21875 -1.9375 3.359375q-1.421875 1.140625 -3.828125 1.140625q-2.71875 0 -4.34375 -1.71875q-1.625 -1.734375 -1.625 -4.78125q0 -3.078125 1.625 -4.796875q1.625 -1.71875 4.40625 -1.71875q2.28125 0 3.609375 0.984375q1.34375 0.984375 1.9375 2.984375zm-8.859375 13.484375l0 -1.375q1.203125 0.125 2.203125 0.125q1.046875 0 1.546875 -0.375q0.390625 -0.28125 0.390625 -0.71875q0 -0.40625 -0.359375 -0.703125q-0.359375 -0.28125 -1.125 -0.28125q-0.75 0 -1.53125 0.234375l0.296875 -1.171875q0.921875 -0.3125 1.96875 -0.3125q1.46875 0 2.21875 0.640625q0.765625 0.65625 0.765625 1.578125q0 1.03125 -0.84375 1.671875q-1.125 0.875 -3.25 0.875q-1.515625 0 -2.28125 -0.1875zm13.816376 -13.375l-2.9843445 -0.53125q0.5 -1.8125 1.71875 -2.671875q1.2343445 -0.875 3.6718445 -0.875q2.203125 0 3.28125 0.53125q1.078125 0.515625 1.515625 1.328125q0.4375 0.796875 0.4375 2.9375l-0.03125 3.84375q0 1.640625 0.15625 2.421875q0.15625 0.78125 0.59375 1.671875l-3.265625 0q-0.125 -0.328125 -0.3125 -0.96875q-0.078125 -0.296875 -0.125 -0.390625q-0.84375 0.8125 -1.8125 1.234375q-0.953125 0.40625 -2.03125 0.40625q-1.9218445 0 -3.0312195 -1.046875q-1.109375 -1.046875 -1.109375 -2.640625q0 -1.046875 0.5 -1.875q0.5 -0.828125 1.40625 -1.265625q0.921875 -0.4375 2.6249695 -0.765625q2.3125 -0.4375 3.203125 -0.8125l0 -0.328125q0 -0.953125 -0.46875 -1.34375q-0.46875 -0.40625 -1.765625 -0.40625q-0.890625 0 -1.390625 0.34375q-0.484375 0.34375 -0.78125 1.203125zm4.40625 2.671875q-0.640625 0.21875 -2.015625 0.515625q-1.359375 0.28125 -1.78125 0.5625q-0.640625 0.46875 -0.640625 1.171875q0 0.6875 0.515625 1.1875q0.515625 0.5 1.3125 0.5q0.890625 0 1.6875 -0.578125q0.609375 -0.453125 0.796875 -1.09375q0.125 -0.421875 0.125 -1.609375l0 -0.65625zm-4.4375 -8.140625l-1.4999695 0q-0.015625 -0.265625 -0.015625 -0.421875q0 -1.234375 0.59375 -1.890625q0.609375 -0.65625 1.5468445 -0.65625q0.40625 0 0.75 0.09375q0.359375 0.078125 1.28125 0.5q0.9375 0.40625 1.46875 0.40625q0.375 0 0.625 -0.234375q0.25 -0.234375 0.328125 -0.78125l1.515625 0q0 1.578125 -0.59375 2.265625q-0.578125 0.671875 -1.484375 0.671875q-0.40625 0 -0.78125 -0.078125q-0.28125 -0.078125 -1.359375 -0.484375q-1.078125 -0.40625 -1.5625 -0.40625q-0.375 0 -0.59375 0.234375q-0.203125 0.21875 -0.21875 0.78125zm10.160156 7.71875q0 -1.640625 0.796875 -3.171875q0.8125 -1.53125 2.296875 -2.34375q1.484375 -0.8125 3.3125 -0.8125q2.828125 0 4.625 1.84375q1.8125 1.828125 1.8125 4.625q0 2.828125 -1.828125 4.6875q-1.828125 1.859375 -4.59375 1.859375q-1.703125 0 -3.265625 -0.765625q-1.546875 -0.78125 -2.359375 -2.265625q-0.796875 -1.5 -0.796875 -3.65625zm3.375 0.1875q0 1.84375 0.875 2.828125q0.875 0.984375 2.171875 0.984375q1.28125 0 2.15625 -0.984375q0.875 -0.984375 0.875 -2.859375q0 -1.828125 -0.875 -2.8125q-0.875 -0.984375 -2.15625 -0.984375q-1.296875 0 -2.171875 0.984375q-0.875 0.984375 -0.875 2.84375z" fill-rule="nonzero"/><path fill="#ffffff" d="m431.06815 337.05545l-2.265625 0q-1.796875 -2.703125 -2.734375 -5.625q-0.9375 -2.921875 -0.9375 -5.640625q0 -3.390625 1.171875 -6.421875q1.0 -2.625 2.546875 -4.828125l2.25 0q-1.609375 3.546875 -2.21875 6.046875q-0.59375 2.484375 -0.59375 5.265625q0 1.921875 0.359375 3.9375q0.359375 2.015625 0.984375 3.84375q0.40625 1.1875 1.4375 3.421875zm13.5390625 -11.359375l3.375 1.0625q-0.78125 2.8125 -2.578125 4.1875q-1.796875 1.359375 -4.5625 1.359375q-3.421875 0 -5.625 -2.34375q-2.203125 -2.34375 -2.203125 -6.390625q0 -4.296875 2.203125 -6.65625q2.21875 -2.375 5.828125 -2.375q3.15625 0 5.125 1.859375q1.171875 1.09375 1.765625 3.15625l-3.4375 0.828125q-0.3125 -1.34375 -1.28125 -2.109375q-0.953125 -0.78125 -2.34375 -0.78125q-1.90625 0 -3.09375 1.375q-1.1875 1.375 -1.1875 4.4375q0 3.265625 1.171875 4.65625q1.171875 1.375 3.046875 1.375q1.375 0 2.375 -0.875q1.0 -0.890625 1.421875 -2.765625zm8.785156 -2.34375l-2.984375 -0.53125q0.5 -1.8125 1.71875 -2.671875q1.234375 -0.875 3.671875 -0.875q2.203125 0 3.28125 0.53125q1.078125 0.515625 1.515625 1.328125q0.4375 0.796875 0.4375 2.9375l-0.03125 3.84375q0 1.640625 0.15625 2.421875q0.15625 0.78125 0.59375 1.671875l-3.265625 0q-0.125 -0.328125 -0.3125 -0.96875q-0.078125 -0.296875 -0.125 -0.390625q-0.84375 0.8125 -1.8125 1.234375q-0.953125 0.40625 -2.03125 0.40625q-1.921875 0 -3.03125 -1.046875q-1.109375 -1.046875 -1.109375 -2.640625q0 -1.046875 0.5 -1.875q0.5 -0.828125 1.40625 -1.265625q0.921875 -0.4375 2.625 -0.765625q2.3125 -0.4375 3.203125 -0.8125l0 -0.328125q0 -0.953125 -0.46875 -1.34375q-0.46875 -0.40625 -1.765625 -0.40625q-0.890625 0 -1.390625 0.34375q-0.484375 0.34375 -0.78125 1.203125zm4.40625 2.671875q-0.640625 0.21875 -2.015625 0.515625q-1.359375 0.28125 -1.78125 0.5625q-0.640625 0.46875 -0.640625 1.171875q0 0.6875 0.515625 1.1875q0.515625 0.5 1.3125 0.5q0.890625 0 1.6875 -0.578125q0.609375 -0.453125 0.796875 -1.09375q0.125 -0.421875 0.125 -1.609375l0 -0.65625zm9.628906 5.984375l-3.296875 0l0 -12.453125l3.0625 0l0 1.78125q0.78125 -1.265625 1.40625 -1.65625q0.640625 -0.40625 1.4375 -0.40625q1.125 0 2.15625 0.625l-1.015625 2.875q-0.828125 -0.546875 -1.546875 -0.546875q-0.6875 0 -1.171875 0.390625q-0.484375 0.375 -0.765625 1.375q-0.265625 1.0 -0.265625 4.171875l0 3.84375zm6.1835938 0l0 -17.1875l3.296875 0l0 17.1875l-3.296875 0zm5.9179688 -6.40625q0 -1.640625 0.796875 -3.171875q0.8125 -1.53125 2.296875 -2.34375q1.484375 -0.8125 3.3125 -0.8125q2.828125 0 4.625 1.84375q1.8125 1.828125 1.8125 4.625q0 2.828125 -1.828125 4.6875q-1.828125 1.859375 -4.59375 1.859375q-1.703125 0 -3.265625 -0.765625q-1.546875 -0.78125 -2.359375 -2.265625q-0.796875 -1.5 -0.796875 -3.65625zm3.375 0.1875q0 1.84375 0.875 2.828125q0.875 0.984375 2.171875 0.984375q1.28125 0 2.15625 -0.984375q0.875 -0.984375 0.875 -2.859375q0 -1.828125 -0.875 -2.8125q-0.875 -0.984375 -2.15625 -0.984375q-1.296875 0 -2.171875 0.984375q-0.875 0.984375 -0.875 2.84375zm10.878906 2.671875l3.3125 -0.515625q0.203125 0.96875 0.84375 1.46875q0.65625 0.5 1.8125 0.5q1.28125 0 1.921875 -0.46875q0.4375 -0.328125 0.4375 -0.890625q0 -0.375 -0.234375 -0.609375q-0.25 -0.234375 -1.109375 -0.4375q-3.984375 -0.875 -5.046875 -1.609375q-1.484375 -1.0 -1.484375 -2.796875q0 -1.625 1.28125 -2.71875q1.28125 -1.109375 3.96875 -1.109375q2.546875 0 3.78125 0.84375q1.25 0.828125 1.71875 2.453125l-3.109375 0.578125q-0.1875 -0.734375 -0.75 -1.109375q-0.5625 -0.390625 -1.59375 -0.390625q-1.296875 0 -1.859375 0.359375q-0.375 0.265625 -0.375 0.671875q0 0.34375 0.328125 0.59375q0.453125 0.328125 3.078125 0.9375q2.625 0.59375 3.671875 1.453125q1.03125 0.875 1.03125 2.453125q0 1.703125 -1.4375 2.9375q-1.421875 1.234375 -4.21875 1.234375q-2.546875 0 -4.03125 -1.03125q-1.484375 -1.03125 -1.9375 -2.796875zm13.597656 8.59375q0.96875 -2.078125 1.359375 -3.203125q0.40625 -1.109375 0.75 -2.5625q0.34375 -1.453125 0.5 -2.75q0.171875 -1.3125 0.171875 -2.6875q0 -2.78125 -0.609375 -5.265625q-0.59375 -2.5 -2.203125 -6.046875l2.25 0q1.765625 2.515625 2.7343445 5.34375q0.984375 2.8125 0.984375 5.71875q0 2.453125 -0.765625 5.25q-0.8905945 3.15625 -2.9062195 6.203125l-2.265625 0z" fill-rule="nonzero"/><path fill="#00ff00" d="m783.22345 384.61154l148.07275 0l17.207703 17.207703l0 86.03641l0 0l-182.48816 0l0 0l0 -86.03641z" fill-rule="evenodd"/><path stroke="#ffffff" stroke-width="3.0" stroke-linejoin="round" stroke-linecap="butt" d="m783.22345 384.61154l148.07275 0l17.207703 17.207703l0 86.03641l0 0l-182.48816 0l0 0l0 -86.03641z" fill-rule="evenodd"/><path fill="#ffffff" d="m788.2989 434.57553l0 -17.1875l5.5625 0q3.171875 0 4.125 0.265625q1.484375 0.390625 2.46875 1.6875q1.0 1.28125 1.0 3.34375q0 1.578125 -0.578125 2.65625q-0.5625 1.078125 -1.453125 1.703125q-0.890625 0.609375 -1.796875 0.796875q-1.25 0.25 -3.59375 0.25l-2.265625 0l0 6.484375l-3.46875 0zm3.46875 -14.28125l0 4.875l1.890625 0q2.0625 0 2.75 -0.265625q0.6875 -0.265625 1.078125 -0.84375q0.390625 -0.578125 0.390625 -1.328125q0 -0.9375 -0.546875 -1.546875q-0.546875 -0.609375 -1.390625 -0.765625q-0.625 -0.125 -2.5 -0.125l-1.671875 0zm19.726562 10.3125l3.28125 0.5625q-0.640625 1.796875 -2.015625 2.75q-1.359375 0.9375 -3.40625 0.9375q-3.25 0 -4.796875 -2.125q-1.234375 -1.703125 -1.234375 -4.28125q0 -3.09375 1.609375 -4.84375q1.625 -1.765625 4.09375 -1.765625q2.78125 0 4.375 1.84375q1.609375 1.828125 1.546875 5.609375l-8.25 0q0.03125 1.46875 0.796875 2.28125q0.765625 0.8125 1.890625 0.8125q0.78125 0 1.296875 -0.421875q0.53125 -0.421875 0.8125 -1.359375zm0.1875 -3.328125q-0.046875 -1.421875 -0.75 -2.15625q-0.703125 -0.75 -1.703125 -0.75q-1.078125 0 -1.78125 0.78125q-0.703125 0.78125 -0.6875 2.125l4.921875 0zm9.097656 7.296875l-3.296875 0l0 -12.453125l3.0625 0l0 1.78125q0.78125 -1.265625 1.40625 -1.65625q0.640625 -0.40625 1.4375 -0.40625q1.125 0 2.15625 0.625l-1.015625 2.875q-0.828125 -0.546875 -1.546875 -0.546875q-0.6875 0 -1.171875 0.390625q-0.484375 0.375 -0.765625 1.375q-0.265625 1.0 -0.265625 4.171875l0 3.84375zm5.0273438 -3.546875l3.3125 -0.515625q0.203125 0.96875 0.84375 1.46875q0.65625 0.5 1.8125 0.5q1.28125 0 1.921875 -0.46875q0.4375 -0.328125 0.4375 -0.890625q0 -0.375 -0.234375 -0.609375q-0.25 -0.234375 -1.109375 -0.4375q-3.984375 -0.875 -5.046875 -1.609375q-1.484375 -1.0 -1.484375 -2.796875q0 -1.625 1.28125 -2.71875q1.28125 -1.109375 3.96875 -1.109375q2.546875 0 3.78125 0.84375q1.25 0.828125 1.71875 2.453125l-3.109375 0.578125q-0.1875 -0.734375 -0.75 -1.109375q-0.5625 -0.390625 -1.59375 -0.390625q-1.296875 0 -1.859375 0.359375q-0.375 0.265625 -0.375 0.671875q0 0.34375 0.328125 0.59375q0.453125 0.328125 3.078125 0.9375q2.625 0.59375 3.671875 1.453125q1.03125 0.875 1.03125 2.453125q0 1.703125 -1.4375 2.9375q-1.421875 1.234375 -4.21875 1.234375q-2.546875 0 -4.03125 -1.03125q-1.484375 -1.03125 -1.9375 -2.796875zm14.503906 -10.59375l0 -3.046875l3.296875 0l0 3.046875l-3.296875 0zm0 14.140625l0 -12.453125l3.296875 0l0 12.453125l-3.296875 0zm5.5117188 -3.546875l3.3125 -0.515625q0.203125 0.96875 0.84375 1.46875q0.65625 0.5 1.8125 0.5q1.28125 0 1.921875 -0.46875q0.4375 -0.328125 0.4375 -0.890625q0 -0.375 -0.234375 -0.609375q-0.25 -0.234375 -1.109375 -0.4375q-3.984375 -0.875 -5.046875 -1.609375q-1.484375 -1.0 -1.484375 -2.796875q0 -1.625 1.28125 -2.71875q1.28125 -1.109375 3.96875 -1.109375q2.546875 0 3.78125 0.84375q1.25 0.828125 1.71875 2.453125l-3.109375 0.578125q-0.1875 -0.734375 -0.75 -1.109375q-0.5625 -0.390625 -1.59375 -0.390625q-1.296875 0 -1.859375 0.359375q-0.375 0.265625 -0.375 0.671875q0 0.34375 0.328125 0.59375q0.453125 0.328125 3.078125 0.9375q2.625 0.59375 3.671875 1.453125q1.03125 0.875 1.03125 2.453125q0 1.703125 -1.4375 2.9375q-1.421875 1.234375 -4.21875 1.234375q-2.546875 0 -4.03125 -1.03125q-1.484375 -1.03125 -1.9375 -2.796875zm20.222656 -8.90625l0 2.625l-2.25 0l0 5.015625q0 1.53125 0.0625 1.78125q0.0625 0.25 0.28125 0.421875q0.234375 0.15625 0.5625 0.15625q0.453125 0 1.328125 -0.3125l0.28125 2.546875q-1.15625 0.5 -2.609375 0.5q-0.890625 0 -1.609375 -0.296875q-0.703125 -0.296875 -1.046875 -0.765625q-0.328125 -0.484375 -0.453125 -1.296875q-0.109375 -0.578125 -0.109375 -2.3125l0 -5.4375l-1.515625 0l0 -2.625l1.515625 0l0 -2.46875l3.3125 -1.921875l0 4.390625l2.25 0zm9.4921875 8.484375l3.28125 0.5625q-0.640625 1.796875 -2.015625 2.75q-1.359375 0.9375 -3.40625 0.9375q-3.25 0 -4.796875 -2.125q-1.234375 -1.703125 -1.234375 -4.28125q0 -3.09375 1.609375 -4.84375q1.625 -1.765625 4.09375 -1.765625q2.78125 0 4.375 1.84375q1.609375 1.828125 1.546875 5.609375l-8.25 0q0.03125 1.46875 0.796875 2.28125q0.765625 0.8125 1.890625 0.8125q0.78125 0 1.296875 -0.421875q0.53125 -0.421875 0.8125 -1.359375zm0.1875 -3.328125q-0.046875 -1.421875 -0.75 -2.15625q-0.703125 -0.75 -1.703125 -0.75q-1.078125 0 -1.78125 0.78125q-0.703125 0.78125 -0.6875 2.125l4.921875 0zm-6.515625 -6.71875l2.46875 -3.453125l3.046875 0l2.421875 3.453125l-2.640625 0l-1.359375 -1.75l-1.265625 1.75l-2.671875 0zm23.785156 14.015625l-3.296875 0l0 -6.359375q0 -2.015625 -0.21875 -2.59375q-0.203125 -0.59375 -0.6875 -0.921875q-0.46875 -0.328125 -1.125 -0.328125q-0.859375 0 -1.546875 0.46875q-0.671875 0.46875 -0.921875 1.25q-0.25 0.765625 -0.25 2.84375l0 5.640625l-3.296875 0l0 -12.453125l3.0625 0l0 1.828125q1.625 -2.109375 4.09375 -2.109375q1.09375 0 1.984375 0.40625q0.90625 0.390625 1.375 1.0q0.46875 0.609375 0.640625 1.390625q0.1875 0.765625 0.1875 2.203125l0 7.734375zm14.191406 -8.765625l-3.25 0.578125q-0.15625 -0.96875 -0.75 -1.453125q-0.578125 -0.5 -1.5 -0.5q-1.234375 0 -1.96875 0.859375q-0.71875 0.84375 -0.71875 2.828125q0 2.21875 0.734375 3.140625q0.75 0.90625 2.0 0.90625q0.9375 0 1.53125 -0.53125q0.609375 -0.53125 0.84375 -1.828125l3.234375 0.546875q-0.5 2.21875 -1.9375 3.359375q-1.421875 1.140625 -3.828125 1.140625q-2.71875 0 -4.34375 -1.71875q-1.625 -1.734375 -1.625 -4.78125q0 -3.078125 1.625 -4.796875q1.625 -1.71875 4.40625 -1.71875q2.28125 0 3.609375 0.984375q1.34375 0.984375 1.9375 2.984375zm2.4882812 -5.375l0 -3.046875l3.296875 0l0 3.046875l-3.296875 0zm0 14.140625l0 -12.453125l3.296875 0l0 12.453125l-3.296875 0zm9.136719 -8.65625l-2.984375 -0.53125q0.5 -1.8125 1.71875 -2.671875q1.234375 -0.875 3.671875 -0.875q2.203125 0 3.28125 0.53125q1.078125 0.515625 1.515625 1.328125q0.4375 0.796875 0.4375 2.9375l-0.03125 3.84375q0 1.640625 0.15625 2.421875q0.15625 0.78125 0.59375 1.671875l-3.265625 0q-0.125 -0.328125 -0.3125 -0.96875q-0.078125 -0.296875 -0.125 -0.390625q-0.84375 0.8125 -1.8125 1.234375q-0.953125 0.40625 -2.03125 0.40625q-1.921875 0 -3.03125 -1.046875q-1.109375 -1.046875 -1.109375 -2.640625q0 -1.046875 0.5 -1.875q0.5 -0.828125 1.40625 -1.265625q0.921875 -0.4375 2.625 -0.765625q2.3125 -0.4375 3.203125 -0.8125l0 -0.328125q0 -0.953125 -0.46875 -1.34375q-0.46875 -0.40625 -1.765625 -0.40625q-0.890625 0 -1.390625 0.34375q-0.484375 0.34375 -0.78125 1.203125zm4.40625 2.671875q-0.640625 0.21875 -2.015625 0.515625q-1.359375 0.28125 -1.78125 0.5625q-0.640625 0.46875 -0.640625 1.171875q0 0.6875 0.515625 1.1875q0.515625 0.5 1.3125 0.5q0.890625 0 1.6875 -0.578125q0.609375 -0.453125 0.796875 -1.09375q0.125 -0.421875 0.125 -1.609375l0 -0.65625z" fill-rule="nonzero"/><path fill="#ffffff" d="m815.0938 468.6224l-2.265625 0q-1.796875 -2.703125 -2.734375 -5.625q-0.9375 -2.921875 -0.9375 -5.640625q0 -3.390625 1.171875 -6.421875q1.0 -2.625 2.546875 -4.828125l2.25 0q-1.609375 3.546875 -2.21875 6.046875q-0.59375 2.484375 -0.59375 5.265625q0 1.921875 0.359375 3.9375q0.359375 2.015625 0.984375 3.84375q0.40625 1.1875 1.4375 3.421875zm2.5078125 -5.046875l0 -17.1875l5.1875 0l3.125 11.71875l3.078125 -11.71875l5.203125 0l0 17.1875l-3.21875 0l0 -13.53125l-3.421875 13.53125l-3.328125 0l-3.40625 -13.53125l0 13.53125l-3.21875 0zm22.476562 -8.65625l-2.984375 -0.53125q0.5 -1.8125 1.71875 -2.671875q1.234375 -0.875 3.671875 -0.875q2.203125 0 3.28125 0.53125q1.078125 0.515625 1.515625 1.328125q0.4375 0.796875 0.4375 2.9375l-0.03125 3.84375q0 1.640625 0.15625 2.421875q0.15625 0.78125 0.59375 1.671875l-3.265625 0q-0.125 -0.328125 -0.3125 -0.96875q-0.078125 -0.296875 -0.125 -0.390625q-0.84375 0.8125 -1.8125 1.234375q-0.953125 0.40625 -2.03125 0.40625q-1.921875 0 -3.03125 -1.046875q-1.109375 -1.046875 -1.109375 -2.640625q0 -1.046875 0.5 -1.875q0.5 -0.828125 1.40625 -1.265625q0.921875 -0.4375 2.625 -0.765625q2.3125 -0.4375 3.203125 -0.8125l0 -0.328125q0 -0.953125 -0.46875 -1.34375q-0.46875 -0.40625 -1.765625 -0.40625q-0.890625 0 -1.390625 0.34375q-0.484375 0.34375 -0.78125 1.203125zm4.40625 2.671875q-0.640625 0.21875 -2.015625 0.515625q-1.359375 0.28125 -1.78125 0.5625q-0.640625 0.46875 -0.640625 1.171875q0 0.6875 0.515625 1.1875q0.515625 0.5 1.3125 0.5q0.890625 0 1.6875 -0.578125q0.609375 -0.453125 0.796875 -1.09375q0.125 -0.421875 0.125 -1.609375l0 -0.65625zm4.9257812 -6.46875l3.5 0l2.96875 8.84375l2.90625 -8.84375l3.421875 0l-4.40625 11.984375l-0.78125 2.171875q-0.4375 1.09375 -0.828125 1.65625q-0.390625 0.578125 -0.90625 0.9375q-0.5 0.359375 -1.25 0.546875q-0.734375 0.203125 -1.671875 0.203125q-0.953125 0 -1.875 -0.1875l-0.28125 -2.578125q0.765625 0.140625 1.390625 0.140625q1.140625 0 1.6875 -0.671875q0.5625 -0.671875 0.859375 -1.71875l-4.734375 -12.484375zm17.363281 3.796875l-2.984375 -0.53125q0.5 -1.8125 1.71875 -2.671875q1.234375 -0.875 3.671875 -0.875q2.203125 0 3.28125 0.53125q1.078125 0.515625 1.515625 1.328125q0.4375 0.796875 0.4375 2.9375l-0.03125 3.84375q0 1.640625 0.15625 2.421875q0.15625 0.78125 0.59375 1.671875l-3.265625 0q-0.125 -0.328125 -0.3125 -0.96875q-0.078125 -0.296875 -0.125 -0.390625q-0.84375 0.8125 -1.8125 1.234375q-0.953125 0.40625 -2.03125 0.40625q-1.921875 0 -3.03125 -1.046875q-1.109375 -1.046875 -1.109375 -2.640625q0 -1.046875 0.5 -1.875q0.5 -0.828125 1.40625 -1.265625q0.921875 -0.4375 2.625 -0.765625q2.3125 -0.4375 3.203125 -0.8125l0 -0.328125q0 -0.953125 -0.46875 -1.34375q-0.46875 -0.40625 -1.765625 -0.40625q-0.890625 0 -1.390625 0.34375q-0.484375 0.34375 -0.78125 1.203125zm4.40625 2.671875q-0.640625 0.21875 -2.015625 0.515625q-1.359375 0.28125 -1.78125 0.5625q-0.640625 0.46875 -0.640625 1.171875q0 0.6875 0.515625 1.1875q0.515625 0.5 1.3125 0.5q0.890625 0 1.6875 -0.578125q0.609375 -0.453125 0.796875 -1.09375q0.125 -0.421875 0.125 -1.609375l0 -0.65625zm9.628906 5.984375l-3.296875 0l0 -12.453125l3.0625 0l0 1.78125q0.78125 -1.265625 1.40625 -1.65625q0.640625 -0.40625 1.4375 -0.40625q1.125 0 2.15625 0.625l-1.015625 2.875q-0.828125 -0.546875 -1.546875 -0.546875q-0.6875 0 -1.171875 0.390625q-0.484375 0.375 -0.765625 1.375q-0.265625 1.0 -0.265625 4.171875l0 3.84375zm8.652344 -8.65625l-2.984375 -0.53125q0.5 -1.8125 1.71875 -2.671875q1.234375 -0.875 3.671875 -0.875q2.203125 0 3.28125 0.53125q1.078125 0.515625 1.515625 1.328125q0.4375 0.796875 0.4375 2.9375l-0.03125 3.84375q0 1.640625 0.15625 2.421875q0.15625 0.78125 0.59375 1.671875l-3.265625 0q-0.125 -0.328125 -0.3125 -0.96875q-0.078125 -0.296875 -0.125 -0.390625q-0.84375 0.8125 -1.8125 1.234375q-0.953125 0.40625 -2.03125 0.40625q-1.921875 0 -3.03125 -1.046875q-1.109375 -1.046875 -1.109375 -2.640625q0 -1.046875 0.5 -1.875q0.5 -0.828125 1.40625 -1.265625q0.921875 -0.4375 2.625 -0.765625q2.3125 -0.4375 3.203125 -0.8125l0 -0.328125q0 -0.953125 -0.46875 -1.34375q-0.46875 -0.40625 -1.765625 -0.40625q-0.890625 0 -1.390625 0.34375q-0.484375 0.34375 -0.78125 1.203125zm4.40625 2.671875q-0.640625 0.21875 -2.015625 0.515625q-1.359375 0.28125 -1.78125 0.5625q-0.640625 0.46875 -0.640625 1.171875q0 0.6875 0.515625 1.1875q0.515625 0.5 1.3125 0.5q0.890625 0 1.6875 -0.578125q0.609375 -0.453125 0.796875 -1.09375q0.125 -0.421875 0.125 -1.609375l0 -0.65625zm5.5664062 11.03125q0.96875 -2.078125 1.359375 -3.203125q0.40625 -1.109375 0.75 -2.5625q0.34375 -1.453125 0.5 -2.75q0.171875 -1.3125 0.171875 -2.6875q0 -2.78125 -0.609375 -5.265625q-0.59375 -2.5 -2.203125 -6.046875l2.25 0q1.765625 2.515625 2.734375 5.34375q0.984375 2.8125 0.984375 5.71875q0 2.453125 -0.765625 5.25q-0.890625 3.15625 -2.90625 6.203125l-2.265625 0z" fill-rule="nonzero"/><path fill="#ff0000" d="m795.2686 127.23097l0 0c0 -41.469193 33.61743 -75.08662 75.08661 -75.08662l0 0c19.914246 0 39.012817 7.9108887 53.0943 21.992363c14.081421 14.081467 21.99231 33.180046 21.99231 53.094254l0 0c0 41.469193 -33.61737 75.08661 -75.08661 75.08661l0 0c-41.469177 0 -75.08661 -33.617416 -75.08661 -75.08661z" fill-rule="evenodd"/><path stroke="#ffffff" stroke-width="3.0" stroke-linejoin="round" stroke-linecap="butt" d="m795.2686 127.23097l0 0c0 -41.469193 33.61743 -75.08662 75.08661 -75.08662l0 0c19.914246 0 39.012817 7.9108887 53.0943 21.992363c14.081421 14.081467 21.99231 33.180046 21.99231 53.094254l0 0c0 41.469193 -33.61737 75.08661 -75.08661 75.08661l0 0c-41.469177 0 -75.08661 -33.617416 -75.08661 -75.08661z" fill-rule="evenodd"/><path fill="#ffffff" d="m842.8357 114.48972l0.421875 -1.9375l7.515625 0l-1.46875 7.0q-1.40625 0.890625 -3.234375 1.453125q-1.8125 0.5625 -3.5625 0.5625q-3.75 0 -5.609375 -2.265625q-1.5625 -1.90625 -1.5625 -4.90625q0 -3.09375 1.359375 -5.625q1.375 -2.546875 3.453125 -3.75q2.078125 -1.21875 4.625 -1.21875q1.828125 0 3.28125 0.65625q1.453125 0.65625 2.21875 1.765625q0.78125 1.109375 1.125 2.890625l-2.25 0.25q-0.359375 -1.765625 -1.515625 -2.703125q-1.140625 -0.953125 -2.921875 -0.953125q-1.875 0 -3.5 1.015625q-1.609375 1.015625 -2.578125 3.0625q-0.953125 2.03125 -0.953125 4.640625q0 2.59375 1.265625 3.921875q1.28125 1.3125 3.53125 1.3125q2.234375 0 4.8125 -1.46875l0.78125 -3.703125l-5.234375 0zm12.652344 -8.0l0.5 -2.40625l2.109375 0l-0.5 2.40625l-2.109375 0zm-3.09375 14.78125l2.59375 -12.453125l2.125 0l-2.59375 12.453125l-2.125 0zm10.363281 -1.71875l-0.34375 1.734375q-0.765625 0.203125 -1.484375 0.203125q-1.265625 0 -2.015625 -0.625q-0.5625 -0.46875 -0.5625 -1.28125q0 -0.40625 0.3125 -1.890625l1.515625 -7.234375l-1.6875 0l0.34375 -1.640625l1.671875 0l0.65625 -3.046875l2.421875 -1.46875l-0.953125 4.515625l2.09375 0l-0.359375 1.640625l-2.078125 0l-1.4375 6.890625q-0.265625 1.3125 -0.265625 1.5625q0 0.375 0.21875 0.578125q0.21875 0.203125 0.703125 0.203125q0.703125 0 1.25 -0.140625zm1.9335938 1.71875l3.59375 -17.1875l2.28125 0l-1.484375 7.140625l8.90625 0l1.484375 -7.140625l2.296875 0l-3.578125 17.1875l-2.296875 0l1.6875 -8.09375l-8.90625 0l-1.6875 8.09375l-2.296875 0zm25.613281 -2.25q-2.234375 2.53125 -4.578125 2.53125q-1.453125 0 -2.34375 -0.828125q-0.875 -0.828125 -0.875 -2.015625q0 -0.796875 0.40625 -2.703125l1.5 -7.1875l2.109375 0l-1.65625 7.96875q-0.21875 0.984375 -0.21875 1.546875q0 0.703125 0.421875 1.09375q0.4375 0.390625 1.265625 0.390625q0.890625 0 1.734375 -0.4375q0.859375 -0.4375 1.46875 -1.171875q0.625 -0.734375 1.015625 -1.75q0.25 -0.640625 0.59375 -2.25l1.125 -5.390625l2.125 0l-2.609375 12.453125l-1.953125 0l0.46875 -2.25zm4.8476562 2.25l3.59375 -17.1875l2.109375 0l-1.265625 6.140625q1.0 -0.921875 1.8125 -1.296875q0.828125 -0.390625 1.71875 -0.390625q1.75 0 2.90625 1.3125q1.171875 1.296875 1.171875 3.78125q0 1.65625 -0.46875 3.03125q-0.46875 1.359375 -1.15625 2.296875q-0.6875 0.921875 -1.4375 1.484375q-0.734375 0.5625 -1.515625 0.828125q-0.765625 0.28125 -1.484375 0.28125q-1.21875 0 -2.15625 -0.640625q-0.9375 -0.65625 -1.46875 -2.0l-0.5 2.359375l-1.859375 0zm3.140625 -5.109375l-0.015625 0.390625q0 1.59375 0.765625 2.4375q0.765625 0.828125 1.90625 0.828125q1.109375 0 2.03125 -0.78125q0.9375 -0.78125 1.53125 -2.421875q0.609375 -1.65625 0.609375 -3.0625q0 -1.5625 -0.765625 -2.421875q-0.75 -0.875 -1.859375 -0.875q-1.15625 0 -2.125 0.890625q-0.953125 0.875 -1.59375 2.71875q-0.484375 1.375 -0.484375 2.296875z" fill-rule="nonzero"/><path fill="#ffffff" d="m850.52905 150.27097l9.75 -17.1875l2.703125 0l2.828125 17.1875l-2.21875 0l-0.828125 -4.953125l-6.953125 0l-2.75 4.953125l-2.53125 0zm6.265625 -6.71875l5.6875 0l-0.671875 -4.3125q-0.390625 -2.5625 -0.484375 -4.28125q-0.578125 1.484375 -1.703125 3.515625l-2.828125 5.078125zm11.2578125 6.71875l3.59375 -17.1875l7.171875 0q1.875 0 2.796875 0.4375q0.9375 0.421875 1.546875 1.46875q0.609375 1.03125 0.609375 2.3125q0 1.078125 -0.4375 2.1875q-0.4375 1.09375 -1.09375 1.8125q-0.65625 0.703125 -1.34375 1.078125q-0.671875 0.359375 -1.453125 0.53125q-1.65625 0.390625 -3.34375 0.390625l-4.296875 0l-1.453125 6.96875l-2.296875 0zm4.15625 -8.921875l3.796875 0q2.203125 0 3.234375 -0.46875q1.03125 -0.484375 1.640625 -1.453125q0.625 -0.96875 0.625 -2.0625q0 -0.84375 -0.328125 -1.375q-0.328125 -0.53125 -0.921875 -0.78125q-0.59375 -0.25 -2.296875 -0.25l-4.40625 0l-1.34375 6.390625zm12.1953125 8.921875l3.59375 -17.1875l2.28125 0l-3.578125 17.1875l-2.296875 0z" fill-rule="nonzero"/><path fill="#000000" fill-opacity="0.0" d="m154.67717 127.23019l248.69292 0" fill-rule="evenodd"/><path stroke="#ffffff" stroke-width="3.0" stroke-linejoin="round" stroke-linecap="butt" d="m172.67717 127.230194l212.69292 0" fill-rule="evenodd"/><path fill="#ffffff" stroke="#ffffff" stroke-width="3.0" stroke-linecap="butt" d="m172.67717 122.274994l-13.614304 4.9552l13.614304 4.9552z" fill-rule="evenodd"/><path fill="#ffffff" stroke="#ffffff" stroke-width="3.0" stroke-linecap="butt" d="m385.3701 132.1854l13.614288 -4.9552l-13.614288 -4.9552z" fill-rule="evenodd"/><path fill="#000000" fill-opacity="0.0" d="m535.062 127.2402l260.22046 0" fill-rule="evenodd"/><path stroke="#ffffff" stroke-width="3.0" stroke-linejoin="round" stroke-linecap="butt" d="m553.062 127.2402l224.22046 0" fill-rule="evenodd"/><path fill="#ffffff" stroke="#ffffff" stroke-width="3.0" stroke-linecap="butt" d="m553.062 122.285l-13.614319 4.9551926l13.614319 4.9551926z" fill-rule="evenodd"/><path fill="#ffffff" stroke="#ffffff" stroke-width="3.0" stroke-linecap="butt" d="m777.2825 132.19539l13.614319 -4.9551926l-13.614319 -4.9551926z" fill-rule="evenodd"/><path fill="#000000" fill-opacity="0.0" d="m469.2205 253.04462l0 -79.93701" fill-rule="evenodd"/><path stroke="#ffffff" stroke-width="3.0" stroke-linejoin="round" stroke-linecap="butt" d="m469.22046 235.04462l0 -43.93701" fill-rule="evenodd"/><path fill="#ffffff" stroke="#ffffff" stroke-width="3.0" stroke-linecap="butt" d="m464.2653 235.04462l4.9551697 13.614288l4.9552 -13.614288z" fill-rule="evenodd"/><path fill="#ffffff" stroke="#ffffff" stroke-width="3.0" stroke-linecap="butt" d="m474.17566 191.1076l-4.9552 -13.614288l-4.9551697 13.614288z" fill-rule="evenodd"/><path fill="#000000" fill-opacity="0.0" d="m102.17347 384.61154l248.62994 -79.93701" fill-rule="evenodd"/><path stroke="#ffffff" stroke-width="3.0" stroke-linejoin="round" stroke-linecap="butt" d="m119.30958 379.1021l231.49384 -74.42758" fill-rule="evenodd"/><path fill="#ffffff" stroke="#ffffff" stroke-width="3.0" stroke-linecap="butt" d="m117.7929 374.38474l-11.444206 8.88443l14.47757 0.5503235z" fill-rule="evenodd"/><path fill="#000000" fill-opacity="0.0" d="m181.35457 436.23358l584.66144 0" fill-rule="evenodd"/><path stroke="#ffffff" stroke-width="3.0" stroke-linejoin="round" stroke-linecap="butt" d="m199.35458 436.23358l566.6614 0" fill-rule="evenodd"/><path fill="#ffffff" stroke="#ffffff" stroke-width="3.0" stroke-linecap="butt" d="m199.35457 431.2784l-13.614288 4.9551697l13.614288 4.9552z" fill-rule="evenodd"/><path fill="#000000" fill-opacity="0.0" d="m857.2598 384.61154l-388.0315 -211.52756" fill-rule="evenodd"/><path stroke="#ffffff" stroke-width="3.0" stroke-linejoin="round" stroke-linecap="butt" d="m841.45557 375.99615l-372.22723 -202.91217" fill-rule="evenodd"/><path fill="#ffffff" stroke="#ffffff" stroke-width="3.0" stroke-linecap="butt" d="m839.08386 380.3469l14.325256 2.1655273l-9.581848 -10.867004z" fill-rule="evenodd"/></g></svg>