<?xml version="1.0" encoding="UTF-8" standalone="no"?>
<svg
   viewBox="0 0 113.92788 113.9233"
   version="1.1"
   id="svg10"
   sodipodi:docname="gitjobs.svg"
   width="113.92787"
   height="113.9233"
   inkscape:version="1.1 (ce6663b3b7, 2021-05-25)"
   xmlns:inkscape="http://www.inkscape.org/namespaces/inkscape"
   xmlns:sodipodi="http://sodipodi.sourceforge.net/DTD/sodipodi-0.dtd"
   xmlns="http://www.w3.org/2000/svg"
   xmlns:svg="http://www.w3.org/2000/svg">
  <defs
     id="defs14">
    <inkscape:path-effect
       effect="powerstroke"
       id="path-effect6286"
       is_visible="true"
       lpeversion="1"
       offset_points="0.52861263,0.43945316"
       not_jump="true"
       sort_points="true"
       interpolator_type="CentripetalCatmullRom"
       interpolator_beta="0.75"
       start_linecap_type="butt"
       linejoin_type="spiro"
       miter_limit="4"
       scale_width="1"
       end_linecap_type="butt" />
    <inkscape:path-effect
       effect="simplify"
       id="path-effect6284"
       is_visible="true"
       lpeversion="1"
       steps="1"
       threshold="0.0033306899"
       smooth_angles="0"
       helper_size="0"
       simplify_individual_paths="false"
       simplify_just_coalesce="false"
       step="1" />
    <inkscape:path-effect
       effect="powerstroke"
       id="path-effect455"
       is_visible="true"
       lpeversion="1"
       offset_points="2.5186866,0.57359034"
       not_jump="true"
       sort_points="true"
       interpolator_type="CentripetalCatmullRom"
       interpolator_beta="0.75"
       start_linecap_type="butt"
       linejoin_type="spiro"
       miter_limit="4"
       scale_width="1"
       end_linecap_type="butt" />
    <inkscape:path-effect
       effect="simplify"
       id="path-effect453"
       is_visible="true"
       lpeversion="1"
       steps="1"
       threshold="0.0033306899"
       smooth_angles="0"
       helper_size="0"
       simplify_individual_paths="false"
       simplify_just_coalesce="false"
       step="1" />
  </defs>
  <sodipodi:namedview
     id="namedview12"
     pagecolor="#ffffff"
     bordercolor="#666666"
     borderopacity="1.0"
     inkscape:pageshadow="2"
     inkscape:pageopacity="0.0"
     inkscape:pagecheckerboard="0"
     showgrid="false"
     fit-margin-top="0"
     fit-margin-left="0"
     fit-margin-right="0"
     fit-margin-bottom="0"
     inkscape:object-paths="true"
     inkscape:object-nodes="false"
     inkscape:zoom="2.8284271"
     inkscape:cx="-30.935922"
     inkscape:cy="44.724504"
     inkscape:window-width="1366"
     inkscape:window-height="704"
     inkscape:window-x="0"
     inkscape:window-y="0"
     inkscape:window-maximized="1"
     inkscape:current-layer="svg10" />
  <rect
     style="fill:#ffffff;stroke:#f05133;stroke-width:0;paint-order:stroke fill markers"
     id="rect64"
     width="74.443703"
     height="67.272858"
     x="38.050201"
     y="-35.140682"
     ry="0.77307498"
     transform="rotate(45)" />
  <rect
     style="fill:#f05133;fill-opacity:1;stroke-width:0;paint-order:stroke fill markers"
     id="rect2824"
     width="23.551338"
     height="3.2126007"
     x="67.295799"
     y="20.827295"
     ry="1.6063004"
     transform="rotate(30)" />
  <rect
     style="fill:#f05133;fill-opacity:1;stroke-width:0;paint-order:stroke fill markers"
     id="rect2824-3"
     width="23.551338"
     height="3.2126007"
     x="73.274429"
     y="27.666183"
     ry="1.6063004"
     transform="rotate(30)" />
  <circle
     id="path6234"
     style="fill:#f05133;stroke:#000000"
     cx="8.9982042"
     cy="8.7419453"
     r="0" />
  <circle
     id="path6236"
     style="fill:#f05133;stroke:#000000"
     cx="8.9982042"
     cy="8.7419453"
     r="0" />
  <circle
     id="path6242"
     style="fill:#f05133;stroke:#000000"
     cx="30.489586"
     cy="14.240445"
     r="0" />
  <circle
     id="path6244"
     style="fill:#f05133;stroke:#000000"
     cx="30.489586"
     cy="14.240445"
     r="0" />
  <circle
     id="path6246"
     style="fill:#f05133;stroke:#000000"
     cx="23.388725"
     cy="7.3938589"
     r="0" />
  <circle
     id="path6248"
     style="fill:#f05133;stroke:#000000"
     cx="23.388725"
     cy="7.3938589"
     r="0" />
  <path
     style="fill:none;stroke:#f05133;stroke-width:1px;stroke-linecap:butt;stroke-linejoin:miter;stroke-opacity:1"
     d="m 47.830353,30.776026 c 2.288589,-2.221737 17.659089,0.552556 18.17091,5.891131"
     id="path6582"
     sodipodi:nodetypes="cc" />
  <path
     style="fill:none;stroke:#f05133;stroke-width:1px;stroke-linecap:butt;stroke-linejoin:miter;stroke-opacity:1"
     d="M 47.528726,43.840249 C 47.220218,40.665572 58.977795,30.384115 63.469296,33.314774"
     id="path6582-5"
     sodipodi:nodetypes="cc" />
  <path
     fill="#f05133"
     d="M 111.77988,51.8875 62.034875,2.1486 c -2.8622,-2.8648 -7.5082,-2.8648 -10.374,0 l -10.329,10.33 13.102,13.102 c 3.0459,-1.0284 6.5371,-0.33888 8.9639,2.0884 2.4394,2.4424 3.124,5.9634 2.0698,9.0195 l 12.628,12.628 c 3.0551,-1.0528 6.58,-0.37262 9.0195,2.0712 3.4106,3.4096 3.4106,8.9345 0,12.345 -3.4111,3.4116 -8.936,3.4116 -12.349,0 -2.5645,-2.5665 -3.1988,-6.3345 -1.8999,-9.4942 l -11.777,-11.777 4.865292,38.825884 c 2.432155,0.41162 4.979509,-3.158708 0,0 1.707883,1.707683 0.0031,-2.238029 0,0 -0.0031,2.229948 -0.855475,4.459654 -2.557192,6.164016 -1.6889,1.688158 -4.104438,4.676307 -6.316963,4.692542 -2.212525,0.01624 -4.308155,-2.9716 -6.028037,-4.692542 -1.670249,-1.672453 -2.522419,-3.850925 -2.55651,-6.039126 -0.03551,-2.279386 -1.739851,1.739545 0,0 -0.697182,-1.120268 -1.0405,0.4268 0,0 L 53.910675,41.9196 c -1.041,-0.425 -2.015,-1.057 -2.859,-1.905 -2.583,-2.581 -3.2051,-6.372 -1.8804,-9.5439 l -12.916,-12.918 -34.106,34.105 c -2.8657,2.867 -2.8657,7.513 0,10.378 l 49.742,49.739 c 2.8638,2.8648 7.5082,2.8648 10.376,0 l 49.511995,-49.504 c 2.86481,-2.8662 2.86481,-7.5136 0,-10.379"
     id="path8"
     sodipodi:nodetypes="cccccccccccccccsczcscccccccccccc" />
</svg>
